<svg xmlns="http://www.w3.org/2000/svg" xmlns:xlink="http://www.w3.org/1999/xlink" version="1.1" x="0px" y="0px" viewBox="0 0 100 125" style="enable-background:new 0 0 100 100;" xml:space="preserve"><g><path d="M70.1,33.5c-0.4-0.5-1-0.7-1.6-0.7h-37c-0.6,0-1.2,0.3-1.6,0.7c-0.4,0.5-0.6,1.1-0.5,1.7L35,77c0.1,1.1,1.1,1.9,2.1,1.9   h25.7c1.1,0,2-0.8,2.1-1.9l5.6-41.8C70.7,34.6,70.5,33.9,70.1,33.5z M61,74.6H39L33.9,37H66L61,74.6z"/><path d="M31.1,29.8l18.7-5l0,0l0,0l18.9-5c1.1-0.3,1.8-1.5,1.5-2.6s-1.5-1.8-2.6-1.5l-16.8,4.5L50.2,18c-0.3-1.1-1.5-1.8-2.6-1.5   s-1.8,1.5-1.5,2.6l0.6,2.2L30,25.7c-1.1,0.3-1.8,1.5-1.5,2.6c0.3,1,1.1,1.6,2.1,1.6C30.7,29.9,30.9,29.9,31.1,29.8z"/><path d="M44.2,71.2L44.2,71.2c1.3-0.1,2.2-1.1,2.1-2.3L44.7,41c-0.1-1.2-1.1-2.1-2.3-2s-2.1,1.1-2,2.3L42,69.2   C42.1,70.3,43.1,71.2,44.2,71.2z"/><path d="M55.6,71.2L55.6,71.2c1.2,0,2.2-0.9,2.2-2l1.6-27.9c0.1-1.2-0.8-2.2-2-2.3s-2.2,0.8-2.3,2l-1.5,28   C53.5,70.1,54.4,71.2,55.6,71.2z"/></g></svg>